<?xml version="1.0" encoding="utf-8"?>
<!-- Generator: Adobe Illustrator 16.0.0, SVG Export Plug-In . SVG Version: 6.00 Build 0)  -->
<!DOCTYPE svg PUBLIC "-//W3C//DTD SVG 1.1//EN" "http://www.w3.org/Graphics/SVG/1.1/DTD/svg11.dtd">
<svg version="1.1" id="Layer_1" xmlns="http://www.w3.org/2000/svg" xmlns:xlink="http://www.w3.org/1999/xlink" x="0px" y="0px"
	 width="101.621px" height="43.833px" viewBox="0 0 101.621 43.833" enable-background="new 0 0 101.621 43.833"
	 xml:space="preserve">
<g>
	<g>
		<path fill="#010101" d="M16.146,7.456c0,0,0.332-1.816-0.699-1.816c0,0-0.611,0.263-0.437-1.082c0,0,1.135-0.193,1.03-2.359
			c0,0,0.279-1.798-2.323-2.164c0,0-3.144-0.787-3.615,5.238c0,0,0.419,0.908-0.524,0.942c0,0-1.572,0.386-2.27,3.599
			c0,0-0.07,0.664-0.769,0.908c0,0-0.978,1.188-0.628,2.898c0,0,0.314,0.56-0.873,1.084l-4.436,4.89c0,0-1.887,2.34,1.013,3.388
			c0,0,5.694,1.293,5.554,2.865c0,0-0.75,4.401-0.646,5.553l0.301,2.674c0,0,0.039,2.951-2.931,2.893c0,0-1.056,0.841,0.782,1.173
			c0,0,2.481,0.431,3.322-1.29c0,0,0.469,0.82,0.391,1.191l0.723-0.097l0.235-0.059c0,0-0.651-2.744-0.465-3.812
			c0,0,1.491-5.211,0.978-8.378c0,0,2.981-0.698,3.68,3.911c0,0,0.978,0.42,1.117-1.535v-1.539c0,0-0.326-1.535-1.956-2.049h1.071
			v-1.072l-4.005-0.277L9.72,20.665c0,0,0.967,0.265,2.748,1.164l0.437,0.254l0.308,0.26l0.047-4.891l0.512-1.957l0.046-2.375
			c0,0-0.039-2.277,1.45-2.88c-0.004-0.063,0.016-0.193,0.09-0.46C15.357,9.78,16.111,8.992,16.146,7.456z M6.802,21.847
			c-2.23,0.047-2.231-0.941-2.231-0.941c0.464-1.169,2.231-0.779,2.231-0.779V21.847z M13.283,11.774c0,0-0.816,1.863-0.699,4.4
			c0,0-0.117,0.536-0.466,0.606c0,0-0.372-0.187-0.302-2.981c0,0,0.139-0.584-0.063-0.783c0,0-0.573-0.73,0.365-2.127
			c0,0,0.256-0.965,1.165-0.703C13.283,10.187,13.958,10.26,13.283,11.774z"/>
		<path opacity="0.5" fill="#010101" d="M15.402,10.187c-0.048,0.016-0.09,0.036-0.134,0.054
			C15.276,10.378,15.402,10.187,15.402,10.187z"/>
	</g>
	<path fill="#BF202E" stroke="#AD1F24" stroke-miterlimit="10" d="M43.731,9.403H16.62c-1.708,0-3.092,1.386-3.092,3.094V30.14
		c0,1.708,1.384,3.093,3.092,3.093h8.435c0.429,2.548,2.209,6.86,9.111,9.345c0,0-3.436-3.333-3.234-9.345h12.799
		c1.708,0,3.092-1.385,3.092-3.093V12.497C46.823,10.789,45.438,9.403,43.731,9.403z"/>
	<g>
		<polygon fill="#010101" points="48.084,31.999 50.946,31.999 50.946,22.938 58.522,22.938 58.522,20.521 50.946,20.521 
			50.946,14.147 59.146,14.147 59.146,11.699 48.084,11.699 		"/>
		<rect x="59.579" y="10.631" fill="#010101" width="2.894" height="21.368"/>
		<rect x="64.213" y="17.343" fill="#010101" width="2.894" height="14.656"/>
		<path fill="#010101" d="M90.565,25.872c-0.232,0.685-0.445,1.406-0.634,2.043c-0.062,0.211-0.12,0.413-0.179,0.608
			c-0.223-0.773-0.526-1.731-0.824-2.595l-3.181-8.586h-1.74h-1.417h-2.326v-4.17l-2.834,0.758v3.412h-1.265v-0.207L76.06,17.11
			c-0.268-0.068-0.486-0.094-0.775-0.094c-1.715,0-3.238,1.115-3.973,2.871l-0.082-2.545h-2.57l0.01,0.148
			c0.082,1.234,0.119,2.614,0.119,4.478v10.03h2.862v-7.803c0-0.435,0.06-0.849,0.116-1.194c0.358-1.969,1.68-3.241,3.369-3.241
			c0.332,0,0.59,0.025,0.859,0.086l0.171,0.037v-0.271h1.265v7.701c0,1.876,0.334,3.096,1.043,3.836
			c0.658,0.75,1.67,1.146,2.93,1.146c0.952,0,1.794-0.13,2.368-0.366l0.094-0.039l-0.138-2.231l-0.164,0.045
			c-0.289,0.079-0.781,0.174-1.479,0.174c-1.276,0-1.82-0.793-1.82-2.652v-7.612h3.238l4.479,11.164
			c0.123,0.333,0.172,0.518,0.172,0.637c0,0.127-0.104,0.36-0.195,0.566c-0.494,1.112-1.301,2.18-2.16,2.861
			c-0.92,0.779-1.873,1.134-2.24,1.251l-0.132,0.041l0.729,2.45l0.124-0.023c0.39-0.071,1.778-0.404,3.274-1.725
			c1.707-1.48,2.959-3.766,4.969-9.055l3.994-10.438H93.45L90.565,25.872z"/>
		<path fill="#010101" d="M99.729,28.362c-1.097,0-1.893,0.832-1.893,1.98c0,1.149,0.796,1.982,1.893,1.982
			c1.113,0,1.892-0.815,1.892-1.982C101.621,29.177,100.843,28.362,99.729,28.362z"/>
		<polygon fill="#010101" points="100.875,26.235 101.296,11.844 101.3,11.699 98.159,11.699 98.583,26.235 		"/>
	</g>
	<radialGradient id="SVGID_1_" cx="14.0513" cy="11.1426" r="16.6171" gradientUnits="userSpaceOnUse">
		<stop  offset="0" style="stop-color:#FFFFFF"/>
		<stop  offset="1" style="stop-color:#FFFFFF;stop-opacity:0"/>
	</radialGradient>
	<path opacity="0.25" fill="url(#SVGID_1_)" d="M43.731,9.403H16.62c-1.708,0-3.092,1.386-3.092,3.094V30.14
		c0,1.708,1.384,3.093,3.092,3.093h8.435c0.429,2.548,2.209,6.86,9.111,9.345c0,0-3.436-3.333-3.234-9.345h12.799
		c1.708,0,3.092-1.385,3.092-3.093V12.497C46.823,10.789,45.438,9.403,43.731,9.403z"/>
	<g>
		<path fill="#FFFFFF" d="M19.248,12.2c1.04-0.22,2.681-0.384,4.35-0.384c2.38,0,3.913,0.411,5.062,1.341
			c0.958,0.712,1.532,1.806,1.532,3.256c0,1.778-1.176,3.338-3.119,4.049v0.055c1.751,0.438,3.803,1.888,3.803,4.624
			c0,1.587-0.629,2.791-1.56,3.693c-1.286,1.177-3.365,1.724-6.375,1.724c-1.642,0-2.9-0.109-3.694-0.219V12.2z M21.628,19.751
			h2.162c2.517,0,3.994-1.313,3.994-3.092c0-2.161-1.642-3.01-4.049-3.01c-1.094,0-1.723,0.082-2.106,0.165V19.751z M21.628,28.588
			c0.465,0.082,1.149,0.109,1.997,0.109c2.462,0,4.733-0.902,4.733-3.584c0-2.517-2.162-3.557-4.761-3.557h-1.97V28.588z"/>
		<path fill="#FFFFFF" d="M33.8,24.21c0.055,3.256,2.134,4.597,4.542,4.597c1.724,0,2.763-0.301,3.666-0.684l0.411,1.724
			c-0.848,0.383-2.298,0.82-4.405,0.82c-4.077,0-6.512-2.681-6.512-6.676c0-3.994,2.353-7.141,6.21-7.141
			c4.323,0,5.472,3.803,5.472,6.238c0,0.492-0.055,0.875-0.083,1.121H33.8z M40.858,22.486c0.027-1.531-0.629-3.912-3.338-3.912
			c-2.435,0-3.502,2.244-3.693,3.912H40.858z"/>
	</g>
	<path fill="#BF202E" d="M68.185,11.671c0-0.901-1.149-0.901-1.149-0.901c-1.06,0-1.376,0.901-1.376,0.901s-0.316-0.901-1.374-0.901
		c0,0-1.149,0-1.149,0.901c0,0-0.083,1.133,1.262,2.164l1.262,1.217l1.263-1.217C68.267,12.804,68.185,11.671,68.185,11.671z"/>
</g>
<g>
</g>
<g>
</g>
<g>
</g>
<g>
</g>
<g>
</g>
<g>
</g>
</svg>
